# xmcd
#
# Track frame offsets:
#	150
#	24552
#	46711
#	72024
#	92830
#	111272
#	117832
#	139996
#	154241
#	175121
#	182822
#	206285
#	250951
#	277851
#	296142
#	324837
#
# Disc length: 4668 seconds
#
# Revision: 1
# Processed by: cddbd v1.5.2PL0 Copyright (c) Steve Scherf et al.
# Submitted via: audiograbber 1.83.01
#
DISCID=df123a10
DTITLE=B.B. King - Ladies and Gentlemen.... Mr. B.B. King [CD 05) - The Thrill Is
DTITLE=Gone (1969-1971)
DYEAR=2012
DGENRE=Blues
TTITLE0=The Thrill Is Gone
TTITLE1=Confessin' The Blues
TTITLE2=So Excited
TTITLE3=No Good
TTITLE4=Go Underground
TTITLE5=Nobody Loves Me But My Mother
TTITLE6=Chains And Things
TTITLE7=Ask Me No Questions
TTITLE8=Hummingbird
TTITLE9=Everyday I have The Blues
TTITLE10=How Blue Can You Get? [live]
TTITLE11=Worry, Worry [live]
TTITLE12=Sweet Sixteen [live]
TTITLE13=Eyesight To The Blind [live]
TTITLE14=Niji Baby [live]
TTITLE15=The Thrill Is Gone [live]
EXTD=
EXTT0=
EXTT1=
EXTT2=
EXTT3=
EXTT4=
EXTT5=
EXTT6=
EXTT7=
EXTT8=
EXTT9=
EXTT10=
EXTT11=
EXTT12=
EXTT13=
EXTT14=
EXTT15=
PLAYORDER=
